<svg fill="rgb(255, 255, 255)"
        xmlns="http://www.w3.org/2000/svg"
        xmlns:xlink="http://www.w3.org/1999/xlink"
        width="23px" height="25px">
    <path fill-rule="evenodd"
          d="M20.634,7.959 C19.786,7.959 19.093,8.653 19.093,9.500 L19.093,15.664 C19.093,16.512 19.786,17.205 20.634,17.205 C21.482,17.205 22.175,16.512 22.175,15.664 L22.175,9.500 C22.175,8.653 21.482,7.959 20.634,7.959 ZM2.141,7.959 C1.294,7.959 0.600,8.653 0.600,9.500 L0.600,15.664 C0.600,16.512 1.294,17.205 2.141,17.205 C2.990,17.205 3.683,16.512 3.683,15.664 L3.683,9.500 C3.683,8.653 2.990,7.959 2.141,7.959 ZM4.453,17.976 C4.453,19.252 5.488,20.287 6.765,20.287 L7.535,20.287 L7.535,23.370 C7.535,24.217 8.228,24.910 9.076,24.910 C9.924,24.910 10.617,24.217 10.617,23.370 L10.617,20.287 L12.158,20.287 L12.158,23.370 C12.158,24.217 12.851,24.910 13.699,24.910 C14.547,24.910 15.240,24.217 15.240,23.370 L15.240,20.287 L16.011,20.287 C17.288,20.287 18.322,19.252 18.322,17.976 L18.322,9.500 L4.453,9.500 L4.453,17.976 ZM14.243,2.409 L15.218,0.536 C15.268,0.442 15.230,0.325 15.137,0.276 C15.042,0.227 14.926,0.264 14.877,0.358 L13.887,2.260 C13.111,1.960 12.269,1.795 11.388,1.795 C10.506,1.795 9.664,1.960 8.889,2.260 L7.899,0.358 C7.850,0.264 7.733,0.227 7.638,0.276 C7.545,0.325 7.507,0.442 7.557,0.536 L8.532,2.409 C6.350,3.396 4.770,5.481 4.496,7.959 L18.279,7.959 C18.005,5.481 16.425,3.396 14.243,2.409 ZM8.306,6.765 C7.689,6.765 7.188,6.264 7.188,5.648 C7.188,5.031 7.689,4.530 8.306,4.530 C8.923,4.530 9.423,5.031 9.423,5.648 C9.423,6.264 8.923,6.765 8.306,6.765 ZM14.470,6.765 C13.853,6.765 13.352,6.264 13.352,5.648 C13.352,5.031 13.853,4.530 14.470,4.530 C15.087,4.530 15.587,5.031 15.587,5.648 C15.587,6.264 15.087,6.765 14.470,6.765 Z"/>
</svg>