<svg fill="white"
        xmlns="http://www.w3.org/2000/svg"
        xmlns:xlink="http://www.w3.org/1999/xlink"
        width="21px" height="26px">
    <path fill-rule="evenodd"
          d="M16.771,13.814 C16.740,10.691 19.318,9.193 19.433,9.120 C17.984,7.000 15.728,6.709 14.925,6.676 C13.004,6.481 11.177,7.806 10.204,7.806 C9.232,7.806 7.727,6.704 6.135,6.734 C4.043,6.764 2.113,7.951 1.034,9.825 C-1.139,13.598 0.478,19.188 2.597,22.248 C3.633,23.745 4.868,25.428 6.490,25.368 C8.050,25.307 8.641,24.358 10.529,24.358 C12.416,24.358 12.947,25.368 14.599,25.337 C16.279,25.307 17.344,23.811 18.372,22.308 C19.561,20.570 20.050,18.888 20.080,18.801 C20.043,18.785 16.804,17.543 16.771,13.814 ZM13.667,4.650 C14.527,3.606 15.108,2.158 14.949,0.713 C13.710,0.763 12.207,1.538 11.318,2.580 C10.520,3.504 9.822,4.979 10.009,6.396 C11.393,6.503 12.805,5.691 13.667,4.650 Z"/>
</svg>